<svg xmlns="http://www.w3.org/2000/svg" xmlns:xlink="http://www.w3.org/1999/xlink" width="500" zoomAndPan="magnify" viewBox="0 0 375 374.999991" height="500" preserveAspectRatio="xMidYMid meet" version="1.0"><path fill="#ffffff" d="M 105.101562 273.921875 L 105.101562 129.015625 L 176.015625 129.015625 L 176.015625 148.671875 C 180.109375 141.308594 186.042969 135.425781 193.8125 131.015625 C 201.59375 126.613281 210.703125 124.410156 221.140625 124.410156 C 236.898438 124.410156 249.28125 129.484375 258.285156 139.625 C 267.289062 149.757812 271.789062 164.847656 271.789062 184.898438 L 271.789062 273.921875 L 199.964844 273.921875 L 199.964844 191.339844 C 199.964844 186.019531 199.09375 181.929688 197.359375 179.0625 C 195.617188 176.203125 192.699219 174.769531 188.601562 174.769531 C 180.816406 174.769531 176.929688 180.292969 176.929688 191.339844 L 176.929688 273.921875 Z M 105.101562 273.921875 " fill-opacity="1" fill-rule="nonzero"/></svg>